<?xml version="1.0" standalone="no"?>
<!DOCTYPE svg PUBLIC "-//W3C//DTD SVG 20010904//EN"
 "http://www.w3.org/TR/2001/REC-SVG-20010904/DTD/svg10.dtd">
<svg version="1.0" xmlns="http://www.w3.org/2000/svg"
 width="500.000000pt" height="500.000000pt" viewBox="0 0 500.000000 500.000000"
 preserveAspectRatio="xMidYMid meet">
<metadata>
Created by potrace 1.15, written by Peter Selinger 2001-2017
</metadata>
<g transform="translate(0.000000,500.000000) scale(0.100000,-0.100000)"
fill="#000000" stroke="none">
<path d="M0 2500 l0 -2500 2500 0 2500 0 0 2500 0 2500 -2500 0 -2500 0 0
-2500z m4490 1984 c0 -4 -114 -206 -252 -450 l-253 -443 -1226 -1 -1226 0
-254 -445 c-140 -245 -257 -445 -260 -445 -5 0 -508 879 -511 893 0 5 113 209
253 453 l253 444 1738 0 c956 0 1738 -3 1738 -6z m-1842 -1250 c80 -16 232
-83 292 -128 60 -45 149 -138 186 -193 73 -110 124 -277 124 -405 0 -127 -25
-229 -88 -358 -52 -107 -195 -249 -307 -307 -136 -70 -209 -88 -360 -87 -112
1 -141 5 -210 27 -205 68 -359 197 -452 379 -173 340 -64 753 256 962 170 111
366 150 559 110z m1593 -1382 l255 -449 -255 -446 -255 -447 -1738 0 c-956 0
-1738 3 -1738 6 0 4 114 206 253 450 l252 443 1225 1 1226 0 254 445 c140 245
257 445 260 445 3 0 120 -202 261 -448z"/>
</g>
</svg>
