<!DOCTYPE svg PUBLIC "-//W3C//DTD SVG 1.1//EN" "http://www.w3.org/Graphics/SVG/1.1/DTD/svg11.dtd">
<!-- Uploaded to: SVG Repo, www.svgrepo.com, Transformed by: SVG Repo Mixer Tools -->
<svg fill="#a855f7" width="201px" height="201px" viewBox="-2.4 -2.4 28.80 28.80" xmlns="http://www.w3.org/2000/svg" stroke="#a855f7" stroke-width="0.024" transform="matrix(1, 0, 0, 1, 0, 0)rotate(0)">
<g id="SVGRepo_bgCarrier" stroke-width="0" transform="translate(0,0), scale(1)">
<path transform="translate(-2.4, -2.4), scale(1.7999999999999998)" fill="#ffffff" d="M9.166.33a2.25 2.25 0 00-2.332 0l-5.25 3.182A2.25 2.25 0 00.5 5.436v5.128a2.25 2.25 0 001.084 1.924l5.25 3.182a2.25 2.25 0 002.332 0l5.25-3.182a2.25 2.25 0 001.084-1.924V5.436a2.25 2.25 0 00-1.084-1.924L9.166.33z" strokewidth="0"/>
</g>
<g id="SVGRepo_tracerCarrier" stroke-linecap="round" stroke-linejoin="round" stroke="#CCCCCC" stroke-width="1.7280000000000002"/>
<g id="SVGRepo_iconCarrier"> <g id="Dumbbell"> <path d="M21.435,11.5h-.38V8.12a1.626,1.626,0,0,0-1.62-1.62h-.63V6.12a1.625,1.625,0,0,0-3.25,0V11.5H8.445V6.12a1.625,1.625,0,0,0-3.25,0V6.5h-.63a1.62,1.62,0,0,0-1.62,1.62V11.5h-.38a.5.5,0,1,0,0,1h.38v3.37a1.622,1.622,0,0,0,1.62,1.63H5.2v.37a1.625,1.625,0,1,0,3.25,0V12.5h7.11v5.37a1.625,1.625,0,1,0,3.25,0V17.5h.63a1.628,1.628,0,0,0,1.62-1.63V12.5h.38a.5.5,0,1,0,0-1ZM5.2,16.5h-.63a.625.625,0,0,1-.62-.63V8.12a.623.623,0,0,1,.62-.62H5.2Zm2.25,1.37a.634.634,0,0,1-.63.63.625.625,0,0,1-.62-.63V6.12a.623.623,0,0,1,.62-.62.632.632,0,0,1,.63.62Zm10.36,0a.625.625,0,1,1-1.25,0V6.12a.625.625,0,0,1,1.25,0Zm2.25-2a.625.625,0,0,1-.62.63h-.63v-9h.63a.623.623,0,0,1,.62.62Z"/> </g> </g>
</svg>